# xmcd
#
# Track frame offsets: 
#        150
#        15175
#        29898
#        44230
#        58221
#        72071
#        85458
#        100307
#        113706
#        127719
#        140874
#        154749
#        168075
#        181171
#        195282
#        207933
#        219258
#        233795
#        248136
#        259962
#        273041
#        287047
#        300150
#        312721
#        325700
#
# Disc length: 4520 seconds
#
# Revision: 1
# Processed by: cddbd v1.5.2PL0 Copyright (c) Steve Scherf et al.
# Submitted via: ExactAudioCopy v1.2
#
DISCID=6111a619
DTITLE=Various Artist - The Rough Guide to Hillbilly Blues (Reborn and Remast
DTITLE=ered)
DYEAR=2017
DGENRE=Blues
TTITLE0=Roy Harvey and Jess Johnson - Guitar Rag
TTITLE1=Allen Brothers - Bow Wow Blues
TTITLE2=Dick Justice - Cocaine
TTITLE3=Dock Boggs - Down South Blues
TTITLE4=Frank Hutchison - Stackalee
TTITLE5=Jimmie Rodgers - Mule Skinner Blues (Blue Yodel #8)
TTITLE6=Chris Bouchillon - Born In Hard Luck
TTITLE7=Clarence Greene - Johnson City Blues
TTITLE8=Charlie Poole and The North Carolina Ramblers - If The River Was
TTITLE8=Whiskey
TTITLE9=Sam McGee - Buck Dancer's Choice
TTITLE10=Darby And Tarlton - Slow Wicked Blues
TTITLE11=Walter Smith - The Cat's Got The Measles And The Dog's Got Wh
TTITLE11=oopin' Cough
TTITLE12=Larry Hensley - Match Box Blues
TTITLE13=Bayless Rose - Black Dog Blues
TTITLE14=South Georgia Highballers - Blue Grass Twist
TTITLE15=Dixon Brothers - Weave Room Blues
TTITLE16=Tom Ashley - Haunted Road Blues
TTITLE17=John Dilleshaw and The String Marvel - Spanish Fandango
TTITLE18=Cliff Carlisle - Trouble Minded Blues
TTITLE19=Riley Puckett - The Darkey's Wail
TTITLE20=Williamson Brothers and Curry - Lonesome Road Blues
TTITLE21=Lester McFarland - K.C. Whistle Blues
TTITLE22=David Miller - Cannon Ball Rag
TTITLE23=Narmour and Smith - The New Carroll County Blues - No. 1
TTITLE24=Emry Arthur - Reuben, Oh Reuben
EXTD=
EXTT0=
EXTT1=
EXTT2=
EXTT3=
EXTT4=
EXTT5=
EXTT6=
EXTT7=
EXTT8=
EXTT9=
EXTT10=
EXTT11=
EXTT12=
EXTT13=
EXTT14=
EXTT15=
EXTT16=
EXTT17=
EXTT18=
EXTT19=
EXTT20=
EXTT21=
EXTT22=
EXTT23=
EXTT24=
PLAYORDER=
